<svg width="800" height="600" xmlns="http://www.w3.org/2000/svg">
 <g id="Layer_1">
  <title>Layer 1</title>
  <path d="m243,300c0,1 -0.64638,2.23697 0,3c3.93175,4.64127 20.03271,1.60999 63,-1c40.03854,-2.43207 86,-3 122,-3c22,0 38.12711,-1.0741 41,4c0.49271,0.87021 -1.04291,-0.71021 -2,-1c-3.45084,-1.04483 -6.1731,-4.85272 -7,-6c-1.30746,-1.814 -7,-4 -30,-4c-31,0 -73.0108,-0.08554 -105,4c-23.00793,2.93851 -30.06458,3.1991 -35,4c-3.12143,0.50653 -7.84235,2.45978 -16,5c-3.93668,1.22583 -5.88281,2.233 -6,0c-0.44781,-8.53226 7.01511,-30.07401 22,-54c5.6424,-9.00906 8.3775,-9.16942 10,-8c7.69611,5.54704 5,24 5,47c0,17 0,26 0,28c0,1 -1,2 -2,1c-2,-2 -3,-5 -3,-14c0,-7 -1.23462,-17.15225 -2,-19c-1.0824,-2.61313 -3,-3 -4,-4c-1,-1 -2.38269,-2.07611 -2,-3c2.16479,-5.22626 11.28378,-11.72241 24,-16c15.42923,-5.19022 26.82376,-4.48627 29,-5c1.9465,-0.4595 3,0 4,1c1,1 1,2 1,2c0,1 0.05536,2.01901 -1,5c-2.85141,8.05417 -4.23462,14.15225 -5,16c-0.5412,1.30655 -2.07611,1.38269 -3,1c-1.30655,-0.5412 -3,-3 -2,-2c1,1 2.51437,-0.70065 7,-9c6.80777,-12.59579 9.69345,-17.4588 11,-18c3.69553,-1.53073 6,1 7,2c1,1 5.73764,6.23737 13,14c2.8985,3.09818 4.85272,4.1731 6,5c1.814,1.30746 5.00974,0.80292 7,1c5.07422,0.50244 6,1 7,1c3,0 5,-2 8,-5c1,-1 3,-1 5,-1c1,0 1.65451,3.50989 -20,12c-31.21283,12.23764 -70.14813,24.57767 -79,22c-1.35782,-0.39539 0.00784,-0.9805 5,-3c22.03497,-8.914 58.87766,-16.64221 94,-23c36.88391,-6.67667 59.83551,-6.99399 69,-8c0.99402,-0.10913 1,0 1,-1l-1,0" id="svg_11" stroke="#000" fill="none"/>
 </g>
</svg>