<svg width="800" height="600" xmlns="http://www.w3.org/2000/svg">

 <g>
  <title>Layer 1</title>
  <path d="m206,403c0,-1 13.57851,-30.90884 53,-91c47.31979,-72.13071 93.36884,-141.19591 148,-214c21.37244,-28.48192 25.48627,-30.82375 26,-33c0.22977,-0.97325 -0.68378,0.05132 -1,1c-1.58115,4.74342 -4.90445,11.03242 -8,20c-4.8508,14.05239 -5.10892,19.95712 -9,30c-3.08676,7.96693 -6.59766,15.26888 -11,27c-3.23926,8.63176 -4.29614,17.16693 -7,27c-4.77979,17.38257 -9.72351,28.76324 -13,40c-2.58081,8.85095 -7.69681,20.09019 -12,34c-2.80377,9.06305 -5.9725,12.64749 -7,17c-0.91901,3.89301 -2.11588,6.96384 -3,10c-1.15277,3.95868 -2.34314,8.87604 -4,14c-2.53711,7.84622 -2.79395,14.08743 -5,19c-0.91602,2.03983 -1.98691,4.75711 -3,11c-1.12128,6.90961 0,15 -1,20c-1,5 -1,6 -1,8c0,2 -1,5 -1,9c0,2 0,6 0,8l0,3l-1,1l-1,-2" id="svg_15" stroke="#000" fill="none"/>
  <path d="m284,276c0,-1 -0.37506,-4.51093 9,-11c29.89633,-20.69321 65,-39 106,-63l18,-7l18,-8" id="svg_16" stroke="#000" fill="none"/>
  <path d="m411,132c-1,0 -1,0 0,1c1,1 2.724,3.22273 6,7c4.63297,5.34187 10.83179,11.52216 14,18c2.77872,5.68144 3.43265,8.68266 7,14c5.73596,8.54979 7.95517,11.54915 9,15c0.28979,0.95709 0,4 0,7c0,7 0,12 0,16c0,4 0,5 0,6c0,3 0.03146,6.41208 -2,10c-0.69678,1.23065 -1.07611,2.61731 -2,3c-1.30655,0.5412 -2.9176,1.38687 -4,4c-0.38269,0.92387 -0.54916,2.95517 -4,4c-0.95709,0.28978 -5,1 -11,3c-3,1 -6,1 -7,1c-1,0 -3.15225,-0.76537 -5,0c-1.30655,0.5412 -3,1 -4,1c-1,0 -3,0 -4,0c-3,0 -6.50433,-0.40601 -11,2c-1.24689,0.66731 -1.81558,1.99245 -10,3c-0.99249,0.12218 -2,0 -3,0c-1,0 -2,0 -4,0c-1,0 -2,0 -3,0c-1,0 -2,0 -1,0c1,0 11.98535,6.02118 25,15c15.98206,11.02603 53,33 84,53l20,13l5,4" id="svg_17" stroke="#000" fill="none"/>
 </g>
</svg>